<svg xmlns="http://www.w3.org/2000/svg" xmlns:xlink="http://www.w3.org/1999/xlink" width="88.042" height="88.098" viewBox="0 0 88.042 88.098">
  <defs>
    <clipPath id="clip-path">
      <rect id="Rectangle_711" data-name="Rectangle 711" width="88.042" height="88.098" fill="#162f6a" stroke="rgba(0,0,0,0)" stroke-width="1"/>
    </clipPath>
  </defs>
  <g id="Group_1101" data-name="Group 1101" transform="translate(0)">
    <g id="Group_1100" data-name="Group 1100" transform="translate(0 0)" clip-path="url(#clip-path)">
      <path id="Path_38889" data-name="Path 38889" d="M25.816,68.845a43.115,43.115,0,0,1-4.362-12.653,31.821,31.821,0,0,1-.232-3.345c-.019-.636-.041-1.271-.084-1.9a1.625,1.625,0,0,0-1.032-1.595,1.561,1.561,0,0,0-.552-.106,1.767,1.767,0,0,0-1.263.629c-.509.527-.993,1.077-1.48,1.628l-.632.714c-1.433,1.6-2.655,2.311-3.966,2.311a6.445,6.445,0,0,1-3.592-1.448c-.224-.159-.438-.329-.664-.508l-.308-.242-.162-.3.275-.4.943-.329a7.665,7.665,0,0,0,5.067-5.143,1.527,1.527,0,0,0-.378-1.763,1.38,1.38,0,0,0-.986-.372,3.63,3.63,0,0,0-.765.1,14.711,14.711,0,0,1-3.09.407l-.292,0a6.728,6.728,0,0,1-6-4.872l-.053-.21.177-.124a8.774,8.774,0,0,1,4.874-1.561l.87-.029a25.614,25.614,0,0,0,3.614-.284,2.17,2.17,0,0,0,1.588-1.008,2.443,2.443,0,0,0,.029-2.09c-.086-.221-.18-.441-.274-.661a10.657,10.657,0,0,1-.516-1.393,3.207,3.207,0,0,1,1.411-3.5l.2-.131.47.411a8.367,8.367,0,0,0,.657.549,2.532,2.532,0,0,0,1.476.548,2.4,2.4,0,0,0,1.368-.481,6.192,6.192,0,0,0,1.38-1.26c.972-1.256,1.9-2.545,2.76-3.831.344-.516.678-1.039,1.011-1.561a21.317,21.317,0,0,1,5.041-6.064,1.831,1.831,0,0,0,.783-1.364,2.1,2.1,0,0,0-.719-1.625,13.454,13.454,0,0,0-1.949-1.426c-.331-.214-.662-.429-.983-.654s-.665-.476-1.011-.727l-.794-.574.974-1.032A2.77,2.77,0,0,0,25.49,7.5a2.708,2.708,0,0,0-1.079-1.888,9.987,9.987,0,0,0-1.325-.869l-.379-.224c-.286-.171-.579-.326-.954-.526l-1.306-.7.691-.232c.346-.118.657-.23.946-.333a14.31,14.31,0,0,1,1.59-.506,9.133,9.133,0,0,1,2.079-.266,4.873,4.873,0,0,1,4.452,2.577,3.431,3.431,0,0,0,3.007,1.781A4.578,4.578,0,0,0,35.226,5.8a5.576,5.576,0,0,1,2.531-.586,8.96,8.96,0,0,1,3.2.678l.552.21-.483.343c-1.61,1.141-3.135,2.411-3.394,3.961a4.3,4.3,0,0,0,1.012,3.209l.234.326s-1.578.643-1.9.77c-1,.391-1.6.79-1.684,1.669-.093.968.573,1.528,1.307,1.99.485.306.994.573,1.5.839,0,0,1.036.541,1.366.708.584.3,1.169.592,1.733.921.694.4,1.158.7,1.263,1.163s-.187.935-.644,1.607a2.386,2.386,0,0,0,.635,3.677,6.332,6.332,0,0,0,1.606.768c1.264.441,2.541.852,3.818,1.263l.958.31a2.408,2.408,0,0,0,.723.13.84.84,0,0,0,.875-.581.907.907,0,0,0,0-.722,1.569,1.569,0,0,0-.965-.691c-.721-.241-1.441-.472-2.164-.7-.816-.26-1.629-.519-2.44-.8a7.844,7.844,0,0,1-1.052-.477c-.158-.082-.83-.408-.83-.408l.9-1.274a2.756,2.756,0,0,0-.473-4.059,15.1,15.1,0,0,0-2.26-1.483c-.64-.366-1.3-.694-2.007-1.044l-1.492-.751S39.011,16,39.2,15.889a2.426,2.426,0,0,0,1.008-3.481c-.877-1.745-.781-2.193.727-3.42.163-.131.939-.73.939-.73A2.818,2.818,0,0,0,43.224,5.82c-.116-.772-.815-1.448-1.967-1.907a9.115,9.115,0,0,0-3.368-.671,8.589,8.589,0,0,0-3.334.687,4.118,4.118,0,0,1-1.434.434c-.632,0-.994-.481-1.473-1.216A6.549,6.549,0,0,0,25.784,0c-.2,0-.4.006-.61.019A9.142,9.142,0,0,0,19.654,1.9a2.1,2.1,0,0,0-.9,1.626,2.019,2.019,0,0,0,.957,1.516,10.96,10.96,0,0,0,1.389.821c.3.159.6.319.895.494.336.2.66.426,1,.66l.77.526-.813.924a3.066,3.066,0,0,0-.993,2.285A3.025,3.025,0,0,0,23.32,12.8a15.6,15.6,0,0,0,1.391.909c.252.152.5.306.75.463.31.2,1.884,1.253,1.884,1.253l-.386.266a18,18,0,0,0-5.078,5.882c-.967,1.6-2.065,3.156-3.13,4.658l-.2.279a9.032,9.032,0,0,1-1,1.135c-.159.162-.319.324-.476.494l-.2.216L16.42,28a1.356,1.356,0,0,1-.328-.3,2.336,2.336,0,0,0-1.913-1.025,3.123,3.123,0,0,0-2.44,1.391,5.388,5.388,0,0,0-.75,5.742c.119.275.221.556.336.863l.333.882-1.893.1c-1.066.053-2.087.1-3.106.171A10.762,10.762,0,0,0,.573,38.172a1.168,1.168,0,0,0-.508,1.386C1.2,43.3,3.545,45.571,7.041,46.3a15.13,15.13,0,0,0,2.6.228c.411.012.823.024,1.231.051l.105.01.591.49-.747.636a12.1,12.1,0,0,1-1.051.853A8.852,8.852,0,0,1,5.02,49.952a1.588,1.588,0,0,0-1.12.629,1.475,1.475,0,0,0,.343,1.181,33.419,33.419,0,0,0,3.86,3.3,6.9,6.9,0,0,0,4.04,1.43,6.1,6.1,0,0,0,.939-.075,8.222,8.222,0,0,0,4.763-3.1l1.122-1.242.206.768a.911.911,0,0,1,.047.241c.105,6.349,2.572,11.977,5.542,18.15a.967.967,0,0,0,.828.615A1.05,1.05,0,0,0,26,71.755a.905.905,0,0,0,.527-1.307c-.212-.544-.455-1.077-.712-1.6" transform="translate(0 0)" fill="#162f6a" stroke="rgba(0,0,0,0)" stroke-width="1"/>
      <path id="Path_38890" data-name="Path 38890" d="M80.356,19.863a7.9,7.9,0,0,0-2.481-4.294,4.758,4.758,0,0,0-6.524-.277,17.554,17.554,0,0,0-4.918,5.813c-.581,1.116-1.225,1.86-2.488,1.86a5.132,5.132,0,0,1-.969-.108,6.966,6.966,0,0,1-2.683-1.214A7.416,7.416,0,0,1,58.84,20.05l-.354-.466a2.58,2.58,0,0,0-1.951-1.245,2.07,2.07,0,0,0-.325.026c-.953.151-1.369.838-1.729,1.9l-.254.773c-.216.656-.43,1.312-.7,1.946a2.327,2.327,0,0,1-2.242,1.574,2.972,2.972,0,0,1-.361-.022l-.708-.082c-.617-.069-1.235-.138-1.85-.228a2.484,2.484,0,0,0-.355-.028.87.87,0,0,0-.967.755.854.854,0,0,0,.113.7,1.24,1.24,0,0,0,.873.492,31.268,31.268,0,0,0,3.733.342,3.488,3.488,0,0,0,3.081-1.892,13.851,13.851,0,0,0,.9-1.922c.1-.243.2-.485.3-.725a4.4,4.4,0,0,0,.183-.57l.289-.967s.776.917.96,1.142c.362.436.687.834,1.048,1.195a6.714,6.714,0,0,0,4.708,2.209A6.334,6.334,0,0,0,68.583,21.4a19.053,19.053,0,0,1,3.012-3.734,4.388,4.388,0,0,1,2.984-1.557c1.224,0,2.305.839,3.214,2.494a9.131,9.131,0,0,1,.6,1.516,1.066,1.066,0,0,1-.035.935,1.16,1.16,0,0,1-.906.449c-3.141.375-4.022,1.339-4.1,4.486a6.927,6.927,0,0,1-1.351,4.156,7.033,7.033,0,0,0-1.326,5.1c.022.252.033.5.044.757l.026.527-.613.508s-.8-.571-1.1-.784c-.694-.485-1.413-.989-2.073-1.55a1.638,1.638,0,0,1-.165-2.308c.383-.56.8-1.1,1.21-1.64l.213-.275c.534-.7.791-1.267.426-1.925a1.38,1.38,0,0,0-1.289-.747,2.334,2.334,0,0,0-.6.082l-1.307.344a50.57,50.57,0,0,0-5.932,1.812A4.859,4.859,0,0,0,56.6,33.158a5.347,5.347,0,0,0,.779,4.578l1.062,1.527-.477.093c-3.126.6-3.929,1.127-5.742,3.731-.473.682-.92,1.38-1.365,2.079-.371.578-.741,1.158-1.126,1.725-2.322,3.426-5.219,7.2-10.222,8.6a6.01,6.01,0,0,0-2.382,1.719,7.648,7.648,0,0,0-1.962,5.507A28.01,28.01,0,0,1,33.1,73.954a32.844,32.844,0,0,1-3.025,5.474c-.6.88-1.05,1.238-1.539,1.238-.614,0-1.1-.617-1.543-1.283-1.491-2.263-2.911-4.621-4.283-6.9l-.86-1.426c-.364-.6-.736-.909-1.1-.909a.928.928,0,0,0-.448.131c-.7.384-.508,1.1-.223,1.636l.52.987c.531,1.023,1.083,2.08,1.715,3.051,1.146,1.755,2.524,3.8,4.042,5.684a2.4,2.4,0,0,0,1.893,1.05,3.378,3.378,0,0,0,1.682-.541,4.4,4.4,0,0,0,1.346-1.087l.248-.349a28.587,28.587,0,0,0,2.444-3.827,30.832,30.832,0,0,0,3.145-13.9c-.006-3.307,1.192-4.98,4.416-6.172a15.739,15.739,0,0,0,3.65-1.95A25.462,25.462,0,0,0,51.359,48c1.115-1.675,2.232-3.348,3.4-4.987a3.507,3.507,0,0,1,3-1.567c.12,0,.243.006.368.015.286.022.575.037.864.037a6.128,6.128,0,0,0,.75-.041,1.562,1.562,0,0,0,1.213-.765,1.542,1.542,0,0,0-.012-1.412,5.648,5.648,0,0,0-.618-.934c-.1-.134-.2-.267-.3-.4-.141-.2-.288-.387-.436-.581a9.682,9.682,0,0,1-.892-1.3,3.081,3.081,0,0,1-.219-2.379,2.507,2.507,0,0,1,1.268-1.51,31.991,31.991,0,0,1,3.52-1.4c.5-.178,1.01-.357,1.509-.546l.243-.091.391.642-.087.159c-.734,1.357-1.1,2.448-.674,3.7.653,1.9,3.99,4.228,6.145,4.226h0a1.9,1.9,0,0,0,1.965-2.022c0-.3-.026-.609-.053-.911a7.04,7.04,0,0,1-.011-1.589,6.477,6.477,0,0,1,.765-2.741,10.352,10.352,0,0,0,1.864-5.551c.055-2.094.307-2.361,2.444-2.6a3.016,3.016,0,0,0,2.2-1.129,3.018,3.018,0,0,0,.386-2.448" transform="translate(7.592 5.412)" fill="#162f6a" stroke="rgba(0,0,0,0)" stroke-width="1"/>
      <path id="Path_38891" data-name="Path 38891" d="M24.084,35.775a.7.7,0,0,0,.357-.1,2.366,2.366,0,0,0,.82-1.256,2.258,2.258,0,0,0,.03-.88c-.014-.163-.028-.326-.029-.485L25.2,25.726c0-.465-.124-1.026-.736-1.07a2.127,2.127,0,0,0-1.141.513,2.245,2.245,0,0,0-.075.786c-.014,1.088-.012,2.175-.01,3.265V31.3l-.56-.675c-1.382-1.669-2.588-3.366-3.973-5.4a1.175,1.175,0,0,0-.938-.646,1.127,1.127,0,0,0-.369.068c-.47.16-.668.519-.665,1.2,0,0,0,7.207.007,8.707,0,.828.373,1.319.992,1.319h.007c.408,0,.949-.141.957-1.34.008-1.029.007-2.058,0-3.087V30.121l.225-.306.448-.086.212.27c.072.09.145.18.21.275l.614.884q1.386,1.994,2.765,4a1.213,1.213,0,0,0,.907.621" transform="translate(6.41 9.415)" fill="#162f6a" stroke="rgba(0,0,0,0)" stroke-width="1"/>
      <path id="Path_38892" data-name="Path 38892" d="M24.63,34.6c.011.845.362,1.195,1.214,1.209.382.008.762.014,1.144.014.405,0,.808-.006,1.213-.024a4.224,4.224,0,0,0,3.412-1.732,6.363,6.363,0,0,0,.95-5.663,4.4,4.4,0,0,0-4.7-3.647H26.185c-1.325.006-1.575.249-1.578,1.537v3.641h.017l0,1.611c0,1.019-.007,2.036.01,3.055m2.009-7.489.091-.293.282-.03a9.56,9.56,0,0,1,1.068-.082,2.236,2.236,0,0,1,2.043,1.018,4.563,4.563,0,0,1,.209,4.724,2.562,2.562,0,0,1-2.524,1.411,7.4,7.4,0,0,1-.889-.059l-.279-.033Z" transform="translate(9.424 9.482)" fill="#162f6a" stroke="rgba(0,0,0,0)" stroke-width="1"/>
      <path id="Path_38893" data-name="Path 38893" d="M35.5,34.508c-.383,1.029.3,1.3.528,1.383a1.213,1.213,0,0,0,.436.091.856.856,0,0,0,.816-.754,1.929,1.929,0,0,1,2.249-1.586l.615,0c1.155,0,2.464.007,2.812,1.852a1.543,1.543,0,0,0,.971.387h.01a1.168,1.168,0,0,0,.83-.657l-.055-.289a1.464,1.464,0,0,0-.057-.248l-.776-2.065c-.9-2.406-1.835-4.9-2.816-7.315A1.364,1.364,0,0,0,40.1,24.7h0a1.71,1.71,0,0,0-1.149.8c-1.073,2.625-2.083,5.33-3.058,7.947Zm4.527-6.553,1.386,3.69H38.736Z" transform="translate(13.552 9.46)" fill="#162f6a" stroke="rgba(0,0,0,0)" stroke-width="1"/>
      <path id="Path_38894" data-name="Path 38894" d="M14.2,24.581h-.006c-.459.032-.927.2-.922,1.17V31.4c0,1.083-.006,2.166.007,3.246.006.561.173,1.229.934,1.229h.018c.6-.007.992-.5,1-1.241q.029-4.441,0-8.89c0-.716-.366-1.162-1.022-1.162" transform="translate(5.08 9.414)" fill="#162f6a" stroke="rgba(0,0,0,0)" stroke-width="1"/>
      <path id="Path_38895" data-name="Path 38895" d="M33.212,24.577h-.018c-.232.006-.94.026-.947,1.365q-.021,4.294,0,8.591c0,.61.174,1.339.974,1.341h0c.633,0,.961-.447.975-1.328.015-.993.012-1.986.008-2.98V29c0-1.012.006-2.025-.007-3.037-.015-1.358-.705-1.384-.99-1.384" transform="translate(12.346 9.413)" fill="#162f6a" stroke="rgba(0,0,0,0)" stroke-width="1"/>
    </g>
  </g>
</svg>
