<svg xmlns="http://www.w3.org/2000/svg" width="63.926" height="47.699" viewBox="0 0 63.926 47.699">
  <g id="Group_1057" data-name="Group 1057" transform="translate(-170.528 -1469.381)">
    <path id="Union_3" data-name="Union 3" d="M37.113,46.676a1.175,1.175,0,0,1-1.322-1.219c0-.762.5-1.2,1.407-1.2q2.932,0,5.864,0c3.687,0,7.374.007,11.061-.014a6.064,6.064,0,0,0,5.9-3.873c.13-.294.2-.612.326-.984H2.614a9.648,9.648,0,0,0,.289.978,6.18,6.18,0,0,0,5.9,3.885q5.634.008,11.269,0h5.3c1.224,0,1.76.363,1.769,1.2s-.534,1.23-1.741,1.23q-8.251,0-16.5,0A8.555,8.555,0,0,1,.062,39.117,5.438,5.438,0,0,1,0,38.349a1.3,1.3,0,0,1,1.433-1.5c.72-.014,1.438,0,2.236,0V1.822C3.669.339,4.006,0,5.479,0H57.445c1.478,0,1.816.337,1.816,1.816V36.844c.79,0,1.509-.009,2.228,0a1.293,1.293,0,0,1,1.437,1.495,8.512,8.512,0,0,1-8.118,8.307c-2.5.039-5,.05-7.493.05C43.915,46.7,40.514,46.678,37.113,46.676ZM6.2,36.8H56.73V2.471H6.2Zm25.232,9.878a1.241,1.241,0,1,1,.03,0Z" transform="translate(171.028 1469.881)" fill="#162f6a" stroke="rgba(0,0,0,0)" stroke-width="1"/>
    <path id="Path_38056" data-name="Path 38056" d="M28.931,34.92A12.291,12.291,0,1,1,41.181,22.6,12.288,12.288,0,0,1,28.931,34.92m2.4-13.536a20.16,20.16,0,0,0-1.434-7.236,11.272,11.272,0,0,0-.851-1.343c-1.513.537-2.679,5.914-2.489,8.579ZM28.887,32.466c2.081-2.514,2.149-5.533,2.458-8.533H26.432c.318,3.023.4,6.03,2.455,8.533M19.17,21.372h4.813a25.64,25.64,0,0,1,1.438-7.831,9.551,9.551,0,0,0-6.251,7.831m14.627,0h4.8c-.2-3.263-3.322-7.194-6.236-7.826A25.467,25.467,0,0,1,33.8,21.368M32.569,31.678c2.856-.747,5.862-4.492,5.989-7.806h-3.2c-1.542,0-1.541,0-1.646,1.5a5.013,5.013,0,0,1-.055.557c-.362,1.937-.73,3.874-1.084,5.749m-7.165.038a25.932,25.932,0,0,1-1.412-7.42c-.008-.149-.3-.39-.478-.4-.675-.048-1.356-.02-2.035-.021H19.19c.284,3.6,3.328,7.113,6.214,7.844" transform="translate(166.226 1466.891)" fill="#f23e3f"/>
    <path id="Path_38057" data-name="Path 38057" d="M61.634,36.059c-.642.715-1.075,1.233-1.547,1.714-.957.979-1.853.825-2.389-.414-1.252-2.9-2.484-5.8-3.733-8.7a1.255,1.255,0,0,1,1.712-1.691c2.941,1.264,5.888,2.514,8.825,3.787a1.253,1.253,0,0,1,.4,2.2c-.506.516-1.053.992-1.66,1.561.858.848,1.634,1.614,2.409,2.383.232.23.473.455.684.7a1.221,1.221,0,1,1-1.743,1.711c-.816-.77-1.6-1.573-2.38-2.38a6.379,6.379,0,0,1-.575-.878M57.6,30.482l-.115.131,1.849,4.28,2.643-2.537L57.6,30.482" transform="translate(155.457 1462.123)" fill="#f23e3f"/>
    <rect id="Rectangle_688" data-name="Rectangle 688" width="62.927" height="46.699" transform="translate(171.027 1469.881)" fill="none"/>
  </g>
</svg>
