<svg xmlns="http://www.w3.org/2000/svg" width="41.753" height="49.448" viewBox="0 0 41.753 49.448">
  <g id="Group_1063" data-name="Group 1063" transform="translate(-789.112 -1464.75)">
    <g id="Group_1062" data-name="Group 1062" transform="translate(789.362 1465)">
      <g id="Group_1065" data-name="Group 1065" transform="translate(0 0)">
        <path id="Path_38061" data-name="Path 38061" d="M8.79,48.948a2.28,2.28,0,0,1-2.278-2.277V42.437H2.278A2.28,2.28,0,0,1,0,40.16V2.278A2.28,2.28,0,0,1,2.277,0H32.466a2.28,2.28,0,0,1,2.276,2.278V6.511h4.234a2.28,2.28,0,0,1,2.277,2.277V37.2a6.17,6.17,0,0,1-1.7,3.923l-6.615,6.226a6.775,6.775,0,0,1-4.028,1.6Zm0-40.841a.69.69,0,0,0-.681.681V46.671a.69.69,0,0,0,.681.681H28.913a3.061,3.061,0,0,0,.61-.073l.073-.014V41.047a3.178,3.178,0,0,1,3.166-3.166h6.8l.015-.07a2.813,2.813,0,0,0,.083-.612V8.789a.691.691,0,0,0-.682-.681Zm23.972,31.37a1.573,1.573,0,0,0-1.571,1.57v5.609l.139-.085a3.3,3.3,0,0,0,.52-.382l6.615-6.226a2.58,2.58,0,0,0,.292-.343l.105-.143ZM2.277,1.6a.691.691,0,0,0-.681.682V40.16a.691.691,0,0,0,.681.682H6.511V8.789A2.28,2.28,0,0,1,8.789,6.511H33.148V2.278a.691.691,0,0,0-.681-.682Z" transform="translate(0 0)" fill="#162f6a" stroke="#162f6a" stroke-width="0.5"/>
        <path id="Path_38062" data-name="Path 38062" d="M27.168,35.823a.832.832,0,0,1-.57-.226l-8.06-7.623a.855.855,0,0,1-.257-.6.835.835,0,0,1,.233-.59.849.849,0,0,1,.593-.257h3.227a4,4,0,0,0,3.892-3.074l.026-.111H19.106a.831.831,0,1,1,0-1.663H26.25l-.028-.112a3.982,3.982,0,0,0-3.889-3.018H19.106a.832.832,0,0,1,0-1.665H30.377a.832.832,0,0,1,0,1.665h-4.03l.141.151a5.708,5.708,0,0,1,1.432,2.9l.013.075h2.444a.831.831,0,0,1,0,1.663H27.935l-.013.076a5.638,5.638,0,0,1-5.6,4.771H21.19l6.547,6.19a.835.835,0,0,1-.569,1.445" transform="translate(-1.713 -1.583)" fill="#f23e3f" stroke="#f23e3f" stroke-width="0.5"/>
      </g>
    </g>
  </g>
</svg>
