<svg xmlns="http://www.w3.org/2000/svg" xmlns:xlink="http://www.w3.org/1999/xlink" width="48.883" height="49.067" viewBox="0 0 48.883 49.067">
  <defs>
    <clipPath id="clip-path">
      <rect id="Rectangle_689" data-name="Rectangle 689" width="48.883" height="49.067" fill="#162f6a"/>
    </clipPath>
  </defs>
  <g id="Group_1061" data-name="Group 1061" transform="translate(-167 -1469.881)">
    <g id="Group_1060" data-name="Group 1060" transform="translate(167 1469.881)">
      <g id="Group_1059" data-name="Group 1059" transform="translate(0 0)" clip-path="url(#clip-path)">
        <path id="Path_38058" data-name="Path 38058" d="M11.745,49.067l-.32-.055c-.234-.042-.468-.083-.7-.119a12.763,12.763,0,0,1-2.693-24.45,20.273,20.273,0,0,1,2.266-.694c.372-.1.747-.2,1.123-.309l.233-.068V4.336A4.055,4.055,0,0,1,15.979.009H25.21Q31.445.009,37.677,0a1.818,1.818,0,0,1,1.409.579c3.072,3.092,6.167,6.188,9.2,9.2a1.871,1.871,0,0,1,.6,1.449q-.017,7.424-.01,14.846l0,8.437q0,5.2-.007,10.4a3.958,3.958,0,0,1-2.492,3.841,4.537,4.537,0,0,1-.7.23c-.106.029-.211.059-.315.089ZM25.5,37.7a12.993,12.993,0,0,1-4.685,8.533l-.666.569H44.534a1.836,1.836,0,0,0,2.073-2.068V11.983H38.266c-.947,0-1.369-.428-1.369-1.383V2.275H16.019a1.84,1.84,0,0,0-2.1,2.087V23.519s.5.082.55.089a13.113,13.113,0,0,1,5.985,2.44,1.885,1.885,0,0,0,1.061.352q5.839.017,11.679.014h5.7l1.241-.006c.28,0,.559,0,.837.011a1.126,1.126,0,0,1,.205,2.229,2.03,2.03,0,0,1-.424.032H23.282l.215.458c.142.306.289.6.434.895a18.8,18.8,0,0,1,.855,1.9,18.87,18.87,0,0,1,.569,2.029c.076.313.152.629.236.945l.063.24H40.82c.057,0,.113,0,.171,0a1.148,1.148,0,0,1,1.083,1.033,1.121,1.121,0,0,1-.847,1.182,2.436,2.436,0,0,1-.59.047q-4.746,0-9.5,0h-5.6ZM12.787,25.769a10.511,10.511,0,1,0,.009,0ZM39.2,9.676h5.673L39.2,4Z" transform="translate(0 0)" fill="#162f6a"/>
        <path id="Path_38059" data-name="Path 38059" d="M32.743,14.574h-18.6a1.932,1.932,0,0,1-.4-.029,1.129,1.129,0,0,1,.28-2.233q2.23-.006,4.46,0H30.509q2.359,0,4.718,0a1.278,1.278,0,0,1,1.077.536,1.064,1.064,0,0,1,.079,1.015,1.085,1.085,0,0,1-1.074.711c-.352,0-.705.006-1.057.006Z" transform="translate(5.604 5.369)" fill="#162f6a"/>
        <path id="Path_38060" data-name="Path 38060" d="M8.7,31.712a1.144,1.144,0,0,1-.8-.353c-.945-.918-1.912-1.884-2.875-2.874a1.116,1.116,0,0,1-.017-1.63,1.094,1.094,0,0,1,.771-.326,1.255,1.255,0,0,1,.866.379c.421.411.829.832,1.244,1.26l.786.806.4-.373c.1-.1.191-.18.274-.264l1.7-1.7q1.79-1.793,3.586-3.578a1.3,1.3,0,0,1,.915-.4,1.087,1.087,0,0,1,1.063.87,1.2,1.2,0,0,1-.448,1.214q-2.348,2.342-4.692,4.688L9.676,31.221c-.062.06-.109.109-.159.152a1.239,1.239,0,0,1-.816.339" transform="translate(2.034 9.884)" fill="#f23e3f"/>
      </g>
    </g>
  </g>
</svg>
