<svg xmlns="http://www.w3.org/2000/svg" width="41.682" height="52.535" viewBox="0 0 41.682 52.535">
  <g id="Group_1064" data-name="Group 1064" transform="translate(-375.75 -1468.956)">
    <path id="Path_38065" data-name="Path 38065" d="M3.375,24.654h3.45A1.7,1.7,0,0,0,8.5,22.673l-1.02-5.981V14.634A1.58,1.58,0,0,0,5.9,13.056H5.862V9.309l-.151-.047C5.505,9.2,5.293,9.15,5.084,9.1a7.633,7.633,0,0,1-.747-.23v4.19H4.3a1.58,1.58,0,0,0-1.578,1.578v2.058L1.7,22.673a1.7,1.7,0,0,0,1.672,1.981m.87-10.02A.055.055,0,0,1,4.3,14.58H5.9a.055.055,0,0,1,.054.054v1.36H4.245Zm-.119,2.884H6.073l.921,5.41a.171.171,0,0,1-.17.2H3.375a.172.172,0,0,1-.17-.2Z" transform="translate(375.796 1468.128)" fill="#f23e3f" stroke="#f23e3f" stroke-width="0.5"/>
    <path id="Path_38064" data-name="Path 38064" d="M35.611,33.994l-3.054-.9-6.644-4.339v-.994a8.84,8.84,0,0,0,3.49-6.211,2.03,2.03,0,0,0,1.7-2V13.322a1.5,1.5,0,0,0,.628-1.226V8.927l4.585-.782a1.625,1.625,0,0,0,.22-3.151L21.082.077a1.613,1.613,0,0,0-.985,0L4.64,4.994a1.625,1.625,0,0,0-.55,2.8c.03.016.059.032.09.047l.077.035.026.011.027.011.08.031.142.049c.191.062.386.115.581.164s.371.09.555.145l3.779.644V12.1a1.5,1.5,0,0,0,.625,1.223l0,3.5v2.734a2.031,2.031,0,0,0,1.7,2,8.845,8.845,0,0,0,3.487,6.208v1L8.623,33.1,5.571,34A7.751,7.751,0,0,0,0,41.436v2.271a.762.762,0,1,0,1.525,0V41.436A6.265,6.265,0,0,1,6,35.457l2.843-.834L20.2,41.372a.771.771,0,0,0,.778,0l11.359-6.75,2.843.834a6.264,6.264,0,0,1,4.475,5.978V48.8a1.714,1.714,0,0,1-1.712,1.713H34.586V47.223a.762.762,0,0,0-1.525,0v3.286H8.118V47.223a.762.762,0,0,0-1.525,0v3.286H3.237A1.714,1.714,0,0,1,1.525,48.8V47.27A.762.762,0,1,0,0,47.27V48.8a3.241,3.241,0,0,0,3.237,3.237H37.945A3.241,3.241,0,0,0,41.182,48.8V41.435a7.751,7.751,0,0,0-5.571-7.441M25.493,6.837l-2.985-.369a15.661,15.661,0,0,0-3.836,0L10.227,7.513,5.115,6.642c-.032-.005-.078-.013-.083-.092a.085.085,0,0,1,.07-.1L20.559,1.53a.1.1,0,0,1,.061,0L36.077,6.446a.086.086,0,0,1,.07.1c-.006.079-.051.087-.084.092l-5.111.87-1.919-.237a.762.762,0,0,0-.186,1.513l1.362.169v3.125H10.972V8.957l7.887-.977a14.174,14.174,0,0,1,3.461,0L25.3,8.35a.762.762,0,0,0,.188-1.512m4.089,6.769v2.449h-.9a.911.911,0,0,1-.91-.91v-1.54Zm-17.985,0h1.809v1.54a.911.911,0,0,1-.91.91h-.9Zm1.678,7.556A1.181,1.181,0,0,0,12.1,20.055a.5.5,0,0,1-.5-.5V17.579h.9a2.437,2.437,0,0,0,2.434-2.434v-1.54h11.32v1.54a2.437,2.437,0,0,0,2.435,2.434h.9v1.973a.5.5,0,0,1-.5.5,1.18,1.18,0,0,0-1.174,1.107,7.33,7.33,0,0,1-14.631,0M24.39,28.688v.483A14.542,14.542,0,0,1,23.875,33a17.987,17.987,0,0,1-6.568,0,14.505,14.505,0,0,1-.515-3.828c0-.017,0-.032,0-.048v-.436a8.812,8.812,0,0,0,7.6,0m-14,5.079,4.939-3.226a16.005,16.005,0,0,0,2.539,7.383l.3.466Zm10.2,5.552-1.447-2.226a14.518,14.518,0,0,1-1.283-2.458,19.617,19.617,0,0,0,5.462,0,14.513,14.513,0,0,1-1.282,2.458Zm2.423-.928.3-.466a16.005,16.005,0,0,0,2.539-7.383l4.939,3.226Z" transform="translate(376 1469.207)" fill="#162f6a" stroke="#162f6a" stroke-width="0.5"/>
    <rect id="Rectangle_692" data-name="Rectangle 692" width="41.182" height="52.033" transform="translate(376 1469.208)" fill="none"/>
  </g>
</svg>
